<svg version="1.1" id="Layer_1" xmlns="http://www.w3.org/2000/svg" xmlns:xlink="http://www.w3.org/1999/xlink" x="0px" y="0px" width="100%" viewBox="0 0 1024 1280" enable-background="new 0 0 1024 1280" xml:space="preserve">

<path fill="#01238C" opacity="1.000000" stroke="none" d="
M277.149841,686.862976 
	C276.465515,681.206238 275.781189,675.549561 275.317230,669.106873 
	C275.692444,666.676147 275.982483,665.031311 275.982788,663.386536 
	C276.003845,555.516296 276.006073,447.646088 275.964996,339.775848 
	C275.964264,337.833160 275.421600,335.890656 275.131805,333.948059 
	C275.084045,321.754547 276.373474,309.435333 282.291718,298.898193 
	C288.620514,287.630066 297.298004,278.069794 309.553131,271.900665 
	C320.334595,266.473328 331.249023,264.908875 343.047729,264.925568 
	C458.694489,265.089050 574.341858,264.929962 689.987976,265.231262 
	C696.210876,265.247437 702.586243,268.133514 708.609070,270.424072 
	C720.192017,274.829224 728.938232,283.163116 735.564026,293.263641 
	C740.997559,301.546631 745.437256,310.324890 745.084473,321.122345 
	C744.453491,340.431824 744.773376,359.777832 744.940063,379.106476 
	C745.159546,404.550995 745.728455,429.992737 745.902954,455.437317 
	C745.958557,463.549805 744.889771,471.669159 744.924805,479.782806 
	C745.190430,541.220947 745.811584,602.658447 745.812866,664.096130 
	C745.813110,678.344238 745.693115,692.945496 736.765259,705.511292 
	C729.306641,716.009155 720.497681,724.796875 708.360535,729.717957 
	C704.863037,731.135986 701.279724,732.342285 697.235168,733.408752 
	C695.372925,732.822327 694.002380,732.147461 692.651184,732.184204 
	C688.508423,732.296753 684.373108,732.924561 680.234741,732.926208 
	C566.762451,732.971985 453.290192,732.956909 339.817932,732.978821 
	C329.134369,732.980896 319.073212,730.834656 309.747070,725.392883 
	C289.473541,713.563660 278.103119,696.307556 278.083038,672.546143 
	C277.985443,557.074524 278.040619,441.602661 278.041687,326.130890 
	C278.041718,324.344421 278.041687,322.557983 278.041687,320.771515 
	C277.682068,320.782196 277.322449,320.792877 276.962830,320.803558 
	C276.962830,322.608337 276.962891,324.413116 276.962830,326.217896 
	C276.960175,393.868011 276.956482,461.518158 276.955231,529.168274 
	C276.954346,577.823059 276.952362,626.477844 276.965942,675.132629 
	C276.967041,679.042725 277.085785,682.952881 277.149841,686.862976 
M616.744019,422.685577 
	C616.890686,422.536438 617.037292,422.387268 617.163940,422.069641 
	C617.163940,422.069641 617.057312,422.344940 617.583191,421.349091 
	C617.716431,420.998138 617.849670,420.647217 618.488953,420.153473 
	C628.930786,413.410492 639.372681,406.667542 650.507202,400.060425 
	C654.157532,400.496490 660.465637,395.983978 662.372009,391.252258 
	C673.047974,383.733673 683.723999,376.215118 694.399963,368.696533 
	C690.765137,369.678986 687.093750,370.816895 683.984253,372.824860 
	C664.892822,385.153320 645.932007,397.683990 626.914490,410.127075 
	C625.504395,411.049652 623.990417,411.813568 621.824707,413.051361 
	C621.992065,409.793884 622.106995,407.556854 622.668579,403.867157 
	C622.706665,403.362000 622.744812,402.856873 623.010071,401.888580 
	C622.133179,394.676178 624.392273,389.984283 631.402527,386.143250 
	C646.385742,377.933685 660.666870,368.440308 675.205627,359.424500 
	C677.854675,357.781769 680.361206,355.909241 682.933533,354.142792 
	C682.552185,353.545441 682.170837,352.948090 681.789429,352.350739 
	C662.223816,363.694855 642.658203,375.038971 622.953369,386.463806 
	C621.276184,382.392639 619.666626,378.485657 617.973877,374.095917 
	C617.973877,374.095917 617.627991,373.749054 617.547241,372.899414 
	C615.710022,369.530731 618.001770,368.227570 620.441162,366.792664 
	C635.214478,358.102997 649.984253,349.406464 664.689148,340.601898 
	C682.666748,329.837769 700.579407,318.965149 718.520203,308.139404 
	C714.039368,308.882111 709.861267,310.111603 706.198425,312.231476 
	C676.697388,329.305359 647.302002,346.561859 617.834045,363.693085 
	C616.371948,364.543091 614.535706,364.749603 612.477966,364.551117 
	C612.274719,364.374390 612.071411,364.197693 611.958008,363.573151 
	C611.279358,362.902527 610.600769,362.231873 609.425598,360.585175 
	C609.282104,360.249512 609.138550,359.913879 609.122925,359.616455 
	C609.122925,359.616455 609.297668,359.810211 608.279175,359.303986 
	C607.673584,358.850220 607.067993,358.396454 606.717834,357.851349 
	C606.582581,357.525330 606.373840,357.438843 605.814148,357.113464 
	C605.648804,357.031952 605.483521,356.950409 605.095276,356.195160 
	C604.257751,355.119781 603.420166,354.044373 602.631714,353.031982 
	C625.099365,339.152222 647.000122,325.622681 668.900879,312.093140 
	C668.589294,311.565704 668.277710,311.038269 667.966125,310.510834 
	C666.063293,311.416138 664.083496,312.189453 662.269531,313.247131 
	C644.601135,323.550018 626.974426,333.924316 609.301453,344.219269 
	C605.312195,346.543060 601.189514,348.637634 596.635132,350.325562 
	C596.409729,350.252319 596.184265,350.179077 595.837646,349.749084 
	C595.281494,349.542725 594.725281,349.336365 593.303772,348.453796 
	C592.957336,348.335480 592.610901,348.217133 591.949829,347.688934 
	C590.953674,347.366699 589.957520,347.044495 588.365417,346.270813 
	C588.118591,346.236267 587.871765,346.201721 587.265381,345.813568 
	C581.731201,344.449524 576.196960,343.085480 569.620605,341.464569 
	C601.355591,321.715027 633.725647,304.648102 662.914246,282.567932 
	C627.131470,301.569427 592.662659,322.787231 557.364868,343.978973 
	C542.252319,347.674316 530.156982,355.495941 521.955505,369.983398 
	C520.994019,372.108276 520.032471,374.233124 518.711548,377.087463 
	C514.191406,388.266846 514.016846,399.662933 516.932922,411.238983 
	C522.351685,432.749969 543.618835,450.238495 565.627563,450.930389 
	C568.432373,450.796661 571.237244,450.662933 574.834290,450.706726 
	C588.121826,449.426239 599.397949,444.106140 608.739441,434.044830 
	C609.094116,433.436462 609.448730,432.828125 610.097656,432.083862 
	C610.097656,432.083862 610.160400,431.765900 610.518433,431.825531 
	C610.653503,431.531281 610.788574,431.237030 611.632202,430.561035 
	C611.870972,430.438568 612.109680,430.316132 612.213684,430.114227 
	C612.213684,430.114227 612.212463,430.303345 612.584351,429.327362 
	C612.697144,428.998016 612.809998,428.668640 613.248413,428.424774 
	C613.393250,428.008545 613.538147,427.592316 614.498596,426.329102 
	C614.707764,425.997620 614.916931,425.666168 614.890991,425.421143 
	C614.890991,425.421143 615.037781,425.596161 615.037781,425.596161 
	C615.037781,425.596161 614.979553,425.369110 615.614502,424.508179 
	C615.731079,424.171204 615.847595,423.834198 616.242859,423.504700 
	C616.242859,423.504700 616.380127,423.261444 616.380127,423.261444 
	C616.380127,423.261444 616.220703,423.031708 616.744019,422.685577 
M535.662048,479.011139 
	C529.533997,480.251221 523.378296,481.375488 517.300354,482.825562 
	C516.029541,483.128754 515.045471,484.634064 513.929260,485.585419 
	C515.087463,486.441223 516.216187,487.982147 517.409058,488.033569 
	C522.434937,488.250183 523.977478,490.986237 523.933105,495.538757 
	C523.843811,504.694214 523.951233,513.851440 523.884583,523.007324 
	C523.874023,524.455017 523.707031,526.073669 523.049561,527.315186 
	C519.954224,533.160522 509.449738,537.620361 503.346039,535.860657 
	C497.611206,534.207336 494.005035,528.316711 493.994415,520.497620 
	C493.977448,508.011597 493.888153,495.524261 494.045074,483.040192 
	C494.095917,478.995331 492.528015,478.044128 488.885498,479.047699 
	C483.923035,480.414978 478.873871,481.480591 473.952606,482.974518 
	C472.850800,483.308990 472.125336,484.883362 471.226593,485.886871 
	C472.186646,486.620300 473.050720,487.774628 474.122284,488.018921 
	C481.138580,489.618774 481.324890,489.708923 481.434692,496.721924 
	C481.588470,506.539001 481.319824,516.378052 481.896271,526.168640 
	C482.421326,535.086792 488.477325,541.345337 497.226349,542.728943 
	C505.119080,543.976990 512.480164,542.553772 518.746460,537.177002 
	C520.082581,536.030579 521.458496,534.930359 523.456055,533.280090 
	C523.814575,537.043274 524.084167,539.873535 524.384399,543.025146 
	C531.858093,542.529907 538.825012,542.182373 545.760437,541.509155 
	C547.092224,541.379822 548.299866,539.970642 549.564758,539.151917 
	C548.253113,538.241455 547.058105,536.909119 545.605774,536.507385 
	C542.467957,535.639465 538.819336,535.895935 537.839111,530.726196 
	C537.893127,514.980774 537.992310,499.235229 537.924927,483.490356 
	C537.918762,482.055359 536.843445,480.625000 535.662048,479.011139 
M410.968964,544.378662 
	C422.725067,546.454712 433.901123,544.849426 444.202515,538.703674 
	C446.853302,537.122253 448.360504,537.676636 450.030457,539.883972 
	C453.143646,543.999084 456.107697,548.292725 459.713989,551.938049 
	C461.246429,553.487061 464.240509,553.590088 466.570312,554.350281 
	C466.288330,552.090271 466.725616,549.346680 465.591278,547.659790 
	C461.996613,542.314209 457.814941,537.363403 453.944489,532.368652 
	C472.770081,505.818115 474.309357,484.157898 459.002808,464.511963 
	C445.511902,447.196411 421.993256,440.797882 401.402893,448.841309 
	C382.068512,456.394073 368.564636,477.875305 370.249725,498.397827 
	C372.179688,521.902527 387.534882,539.544250 410.968964,544.378662 
M356.545715,474.010468 
	C354.522705,476.749146 352.499664,479.487823 349.728638,483.239136 
	C352.206848,484.313507 354.518646,485.972687 356.989594,486.259216 
	C363.447754,487.008148 368.809784,483.192749 370.797485,477.114655 
	C373.273315,469.544006 370.368469,461.860687 363.465637,457.722076 
	C338.594360,442.810333 304.438690,456.843384 298.419891,485.132507 
	C296.634247,493.525208 296.646240,502.852966 298.245667,511.295471 
	C301.346222,527.661926 311.625763,538.950012 328.092224,542.738831 
	C343.725006,546.335876 358.750336,545.136292 369.846466,531.185913 
	C371.385651,529.250793 374.314423,527.303284 371.046814,524.548340 
	C367.880615,521.878967 366.120605,524.004272 364.344208,526.623901 
	C360.550995,532.217651 355.525543,536.033569 348.599213,537.007568 
	C335.759796,538.813110 325.765991,533.979248 319.492401,523.016296 
	C309.600983,505.731201 310.419525,487.826385 319.491669,470.533508 
	C324.190186,461.577454 332.568756,457.519714 342.820892,458.028473 
	C352.237732,458.495789 356.963898,463.711731 356.545715,474.010468 
M707.626953,526.338074 
	C712.066345,515.389709 716.625061,504.487549 720.894897,493.473419 
	C723.031067,487.963287 726.292786,484.493042 732.565796,484.292114 
	C733.740540,484.254486 734.865479,482.661377 736.013367,481.786072 
	C734.728699,480.880219 733.472046,479.241699 732.154724,479.191406 
	C725.338745,478.931152 718.502380,478.943909 711.685059,479.190338 
	C710.268738,479.241516 708.902771,480.684113 707.513550,481.485443 
	C708.749329,482.460144 709.871216,484.046570 711.240967,484.301605 
	C716.615356,485.302277 717.150818,485.859558 715.229004,491.106659 
	C711.337280,501.732178 707.333374,512.316650 703.345703,522.906799 
	C703.096863,523.567627 702.588867,524.130920 701.914673,525.190186 
	C701.017944,523.501038 700.308289,522.405151 699.825684,521.217163 
	C695.693115,511.043915 691.789307,500.773254 687.449036,490.690125 
	C682.410156,478.984100 673.779785,478.446320 664.494263,479.147247 
	C663.584290,479.215912 662.171387,480.643890 662.100708,481.529358 
	C662.031494,482.397217 663.303223,484.109955 664.116150,484.193726 
	C670.685181,484.870605 673.346619,489.559326 675.466125,494.818420 
	C681.500488,509.791962 687.532898,524.767029 693.399719,539.806396 
	C694.078125,541.545593 694.501282,544.148010 693.684631,545.570435 
	C690.649353,550.856995 687.420898,556.130859 683.523987,560.789673 
	C680.969543,563.843384 676.749390,564.994629 673.132019,562.265808 
	C669.432373,559.474915 669.907349,555.687866 672.168640,552.006470 
	C672.307495,551.780334 672.154175,551.374817 672.126038,550.852234 
	C668.260376,547.437256 664.389221,548.944031 660.923645,551.468384 
	C657.762878,553.770630 657.645142,560.397339 660.251526,564.411255 
	C665.140747,571.940857 676.513672,573.838745 684.124268,567.795288 
	C687.689209,564.964417 691.029236,561.279358 693.120239,557.275879 
	C698.269470,547.416931 702.636597,537.149414 707.626953,526.338074 
M595.167725,491.365021 
	C594.521545,493.182739 593.875366,495.000427 593.224915,496.830200 
	C598.190979,500.295105 603.870972,498.575775 605.742310,492.815247 
	C607.173401,488.410095 606.531433,484.211761 603.250793,480.736908 
	C599.937561,477.227570 595.740845,477.009277 591.766113,478.908081 
	C587.068909,481.152100 582.708496,484.101074 577.572632,487.113678 
	C577.572632,485.067902 577.510437,483.315460 577.585327,481.568878 
	C577.749451,477.742828 576.407837,476.451965 572.460144,477.727844 
	C567.891052,479.204620 563.097656,479.978241 558.497009,481.372070 
	C557.182129,481.770416 556.198425,483.261902 555.062866,484.252136 
	C556.255310,485.121613 557.412354,486.676575 558.646423,486.740295 
	C563.632385,486.997681 565.187500,489.624115 565.134583,494.239990 
	C565.000854,505.888702 564.966309,517.541504 565.132324,529.189209 
	C565.199341,533.889832 563.432373,536.325745 558.643127,536.788940 
	C557.383240,536.910828 556.246155,538.301819 555.052673,539.110046 
	C556.346069,540.023743 557.617004,541.689392 558.936462,541.728699 
	C567.244812,541.976257 575.567017,541.978821 583.876221,541.751892 
	C585.238464,541.714722 586.558777,540.141479 587.898438,539.278137 
	C586.776611,538.415649 585.704712,536.894287 584.524353,536.804993 
	C579.429749,536.419434 577.667480,533.708862 577.735474,528.892700 
	C577.867188,519.574585 577.753113,510.253082 577.749512,500.932953 
	C577.746582,493.294098 580.296570,489.654388 587.561035,486.900299 
	C591.348694,485.464417 594.108643,486.165100 595.167725,491.365021 
M623.500305,473.902161 
	C620.523743,475.605316 617.443848,477.157104 614.621155,479.085449 
	C613.477295,479.866852 612.894165,481.469116 612.055908,482.697876 
	C613.195923,483.414703 614.262329,484.527832 615.492981,484.756348 
	C617.380493,485.106750 619.381104,484.848328 621.782654,484.848328 
	C621.782654,498.068909 622.031738,510.855560 621.724304,523.628845 
	C621.260193,542.913879 636.886475,547.628235 650.758728,541.060730 
	C652.218262,540.369751 652.921143,538.080261 653.975037,536.532410 
	C652.251404,536.270264 650.355530,535.406738 648.832092,535.843262 
	C638.612854,538.770752 634.297974,535.710999 634.242371,525.033508 
	C634.179993,513.045715 634.216309,501.057373 634.250671,489.069366 
	C634.254272,487.816437 634.534302,486.564270 634.692627,485.257507 
	C639.205444,485.257507 643.343323,485.165619 647.474792,485.288269 
	C650.463806,485.376984 651.576111,483.599487 651.006592,481.244171 
	C650.743164,480.155090 648.683472,478.867798 647.365051,478.781006 
	C642.785034,478.479523 638.172852,478.664612 633.267944,478.664612 
	C633.530701,474.394043 633.963074,470.252960 633.937439,466.114716 
	C633.929260,464.783722 632.713684,463.460205 632.050415,462.133270 
	C630.658875,462.995300 628.758484,463.539734 627.981018,464.785095 
	C626.327087,467.434296 625.256775,470.447815 623.500305,473.902161 
M652.400452,305.575470 
	C657.215088,302.599854 662.065002,299.679413 666.834290,296.632751 
	C671.392578,293.720886 675.866943,290.677673 680.378235,287.692200 
	C680.076172,287.220856 679.774170,286.749512 679.472168,286.278137 
	C660.343262,295.815613 641.703125,306.187073 625.072205,320.034668 
	C633.975037,315.349304 642.877869,310.663971 652.400452,305.575470 
M658.657837,331.946350 
	C661.695740,329.534912 664.733704,327.123444 667.771606,324.711975 
	C667.489746,324.309082 667.207947,323.906219 666.926086,323.503357 
	C655.879944,330.331909 644.833801,337.160461 633.787659,343.989014 
	C634.103455,344.525452 634.419312,345.061859 634.735168,345.598297 
	C642.512573,341.177765 650.289978,336.757263 658.657837,331.946350 
M702.033386,300.251526 
	C707.104858,297.067963 712.176270,293.884430 717.247681,290.700897 
	C716.933228,290.173828 716.618774,289.646759 716.304321,289.119659 
	C705.484802,295.070160 694.665222,301.020630 683.845642,306.971100 
	C684.123047,307.517609 684.400391,308.064117 684.677795,308.610657 
	C690.254578,305.952271 695.831360,303.293915 702.033386,300.251526 
M668.969543,373.098694 
	C661.306274,377.740814 653.643005,382.382935 645.979736,387.025024 
	C646.275696,387.504639 646.571594,387.984222 646.867554,388.463806 
	C656.376526,384.626068 664.898743,379.177124 672.321472,371.846313 
	C671.395752,372.169220 670.470032,372.492126 668.969543,373.098694 
M688.023560,339.419891 
	C689.492004,338.180237 690.960510,336.940613 692.428955,335.700958 
	C692.177124,335.374573 691.925293,335.048218 691.673462,334.721832 
	C686.139832,338.103943 680.606201,341.486053 675.072571,344.868164 
	C675.305237,345.280029 675.537903,345.691895 675.770569,346.103729 
	C679.674072,344.022522 683.577637,341.941315 688.023560,339.419891 
z" data-index="1" style="opacity: 1;"></path>

<path fill="#000778" opacity="1.000000" stroke="none" d="
M275.057129,334.417175 
	C275.421600,335.890656 275.964264,337.833160 275.964996,339.775848 
	C276.006073,447.646088 276.003845,555.516296 275.982788,663.386536 
	C275.982483,665.031311 275.692444,666.676147 275.334351,668.683716 
	C275.058167,667.552429 274.921539,666.058289 274.921387,664.564148 
	C274.912140,555.503540 274.913574,446.442963 274.917236,337.382385 
	C274.917267,336.550354 274.959778,335.718323 275.057129,334.417175 
z" data-index="3" style="visibility: hidden;"></path>
<path fill="#D3E921" opacity="1.000000" stroke="none" d="
M564.750244,450.515900 
	C543.618835,450.238495 522.351685,432.749969 516.932922,411.238983 
	C514.016846,399.662933 514.191406,388.266846 519.243042,376.896149 
	C525.286621,377.710388 530.799805,379.521423 536.310425,379.513672 
	C542.907043,379.504425 549.642090,378.517029 556.071533,376.947327 
	C578.330627,371.513062 594.177002,392.662048 590.131470,408.153259 
	C588.857361,413.031982 586.555115,417.843231 583.810242,422.096008 
	C577.627563,431.675385 568.719543,439.429840 564.750244,450.515900 
z" data-index="4"></path>
<path fill="#D2E823" opacity="1.000000" stroke="none" d="
M608.310364,434.038696 
	C599.397949,444.106140 588.121826,449.426239 574.413147,450.277344 
	C576.848694,445.434692 579.606384,440.953186 582.587646,436.625671 
	C586.162598,431.436218 590.551270,426.712158 593.503357,421.205353 
	C606.186279,397.546692 592.083984,370.508942 565.707947,368.720367 
	C556.919495,368.124451 547.944397,371.100586 539.012329,371.500458 
	C533.563293,371.744415 528.033691,370.189636 522.540283,369.442749 
	C530.156982,355.495941 542.252319,347.674316 558.159180,343.942749 
	C562.687866,343.723969 566.464172,343.105286 570.147095,343.458649 
	C576.005737,344.020782 581.802185,345.231049 587.624939,346.167175 
	C587.871765,346.201721 588.118591,346.236267 588.795654,346.728973 
	C590.238770,347.491028 591.251648,347.794922 592.264465,348.098816 
	C592.610901,348.217133 592.957336,348.335480 593.799316,348.958679 
	C594.849548,349.677673 595.404236,349.891785 595.958862,350.105865 
	C596.184265,350.179077 596.409729,350.252319 597.086365,350.780792 
	C600.131104,353.113647 602.724670,354.991272 605.318176,356.868896 
	C605.483521,356.950409 605.648804,357.031952 605.941650,357.429260 
	C606.069092,357.745056 606.462402,357.942657 606.462402,357.942657 
	C607.067993,358.396454 607.673584,358.850220 608.755066,359.500977 
	C609.230957,359.697998 608.994995,359.578247 608.994995,359.578247 
	C609.138550,359.913879 609.282104,360.249512 609.682739,361.275238 
	C610.582581,362.650513 611.225281,363.335724 611.868042,364.020966 
	C612.071411,364.197693 612.274719,364.374390 612.740356,365.181824 
	C614.544495,368.458038 616.086243,371.103546 617.627991,373.749023 
	C617.627991,373.749054 617.973877,374.095917 618.057739,374.653809 
	C621.621216,383.927917 623.553040,392.908783 622.782898,402.351715 
	C622.744812,402.856873 622.706665,403.362000 622.219849,404.828857 
	C621.447144,407.394165 621.208374,409.020874 620.781555,410.596619 
	C619.901855,413.844269 618.921753,417.064636 617.982971,420.296265 
	C617.849670,420.647217 617.716431,420.998138 617.338989,421.810669 
	C617.094788,422.272247 617.183899,422.238129 617.183899,422.238129 
	C617.037292,422.387268 616.890686,422.536438 616.395081,422.906067 
	C616.046143,423.126526 615.964172,423.497223 615.964172,423.497223 
	C615.847595,423.834198 615.731079,424.171204 615.315063,424.940247 
	C615.015564,425.372345 615.126099,425.334686 615.126099,425.334686 
	C614.916931,425.666168 614.707764,425.997620 613.943359,426.791504 
	C613.232971,427.615692 613.077881,427.977478 612.922791,428.339294 
	C612.809998,428.668640 612.697144,428.998016 612.389160,429.775970 
	C612.194031,430.224579 612.348328,430.193665 612.348328,430.193665 
	C612.109680,430.316132 611.870972,430.438568 611.128052,430.791077 
	C610.327209,431.186951 610.172729,431.435211 610.160400,431.765900 
	C610.160400,431.765900 610.097656,432.083862 609.764221,432.231018 
	C609.057312,432.931641 608.683838,433.485168 608.310364,434.038696 
z" data-index="5"></path>
<path fill="#C7DF2F" opacity="1.000000" stroke="none" d="
M410.551422,544.299805 
	C387.534882,539.544250 372.179688,521.902527 370.249725,498.397827 
	C368.564636,477.875305 382.068512,456.394073 401.402893,448.841309 
	C421.993256,440.797882 445.511902,447.196411 459.002808,464.511963 
	C474.309357,484.157898 472.770081,505.818115 453.944489,532.368652 
	C457.814941,537.363403 461.996613,542.314209 465.591278,547.659790 
	C466.725616,549.346680 466.288330,552.090271 466.570312,554.350281 
	C464.240509,553.590088 461.246429,553.487061 459.713989,551.938049 
	C456.107697,548.292725 453.143646,543.999084 450.030457,539.883972 
	C448.360504,537.676636 446.853302,537.122253 444.202515,538.703674 
	C433.901123,544.849426 422.725067,546.454712 410.551422,544.299805 
M405.660614,535.134827 
	C423.688690,540.893616 439.099396,536.924927 451.700409,522.678467 
	C467.382385,504.948730 464.713867,477.233063 445.940582,462.221619 
	C428.798431,448.514435 401.629242,448.583344 385.841553,470.265503 
	C369.234741,493.072693 378.123352,524.006897 405.660614,535.134827 
z" data-index="6"></path>
<path fill="#E9EBF0" opacity="1.000000" stroke="none" d="
M356.630798,473.584534 
	C356.963898,463.711731 352.237732,458.495789 342.820892,458.028473 
	C332.568756,457.519714 324.190186,461.577454 319.491669,470.533508 
	C310.419525,487.826385 309.600983,505.731201 319.492401,523.016296 
	C325.765991,533.979248 335.759796,538.813110 348.599213,537.007568 
	C355.525543,536.033569 360.550995,532.217651 364.344208,526.623901 
	C366.120605,524.004272 367.880615,521.878967 371.046814,524.548340 
	C374.314423,527.303284 371.385651,529.250793 369.846466,531.185913 
	C358.750336,545.136292 343.725006,546.335876 328.092224,542.738831 
	C311.625763,538.950012 301.346222,527.661926 298.245667,511.295471 
	C296.646240,502.852966 296.634247,493.525208 298.419891,485.132507 
	C304.438690,456.843384 338.594360,442.810333 363.465637,457.722076 
	C370.368469,461.860687 373.273315,469.544006 370.797485,477.114655 
	C368.809784,483.192749 363.447754,487.008148 356.989594,486.259216 
	C354.518646,485.972687 352.206848,484.313507 349.728638,483.239136 
	C352.499664,479.487823 354.522705,476.749146 356.630798,473.584534 
z" data-index="7"></path>
<path fill="#E9EBF0" opacity="1.000000" stroke="none" d="
M537.678772,531.765503 
	C538.819336,535.895935 542.467957,535.639465 545.605774,536.507385 
	C547.058105,536.909119 548.253113,538.241455 549.564758,539.151917 
	C548.299866,539.970642 547.092224,541.379822 545.760437,541.509155 
	C538.825012,542.182373 531.858093,542.529907 524.384399,543.025146 
	C524.084167,539.873535 523.814575,537.043274 523.456055,533.280090 
	C521.458496,534.930359 520.082581,536.030579 518.746460,537.177002 
	C512.480164,542.553772 505.119080,543.976990 497.226349,542.728943 
	C488.477325,541.345337 482.421326,535.086792 481.896271,526.168640 
	C481.319824,516.378052 481.588470,506.539001 481.434692,496.721924 
	C481.324890,489.708923 481.138580,489.618774 474.122284,488.018921 
	C473.050720,487.774628 472.186646,486.620300 471.226593,485.886902 
	C472.125336,484.883362 472.850800,483.308990 473.952606,482.974518 
	C478.873871,481.480591 483.923035,480.414978 488.885498,479.047699 
	C492.528015,478.044128 494.095917,478.995331 494.045074,483.040192 
	C493.888153,495.524261 493.977448,508.011597 493.994415,520.497620 
	C494.005035,528.316711 497.611206,534.207336 503.346039,535.860657 
	C509.449738,537.620361 519.954224,533.160522 523.049561,527.315186 
	C523.707031,526.073669 523.874023,524.455017 523.884583,523.007324 
	C523.951233,513.851440 523.843811,504.694214 523.933105,495.538757 
	C523.977478,490.986237 522.434937,488.250183 517.409058,488.033569 
	C516.216187,487.982147 515.087463,486.441223 513.929260,485.585388 
	C515.045471,484.634064 516.029541,483.128754 517.300354,482.825562 
	C523.378296,481.375488 529.533997,480.251221 536.016479,479.557922 
	C536.465027,495.246796 536.521545,510.389374 536.697205,525.530579 
	C536.721313,527.612366 537.336975,529.687378 537.678772,531.765503 
z" data-index="8"></path>
<path fill="#E9EBF0" opacity="1.000000" stroke="none" d="
M707.472595,526.692139 
	C702.636597,537.149414 698.269470,547.416931 693.120239,557.275879 
	C691.029236,561.279358 687.689209,564.964417 684.124268,567.795288 
	C676.513672,573.838745 665.140747,571.940857 660.251526,564.411255 
	C657.645142,560.397339 657.762878,553.770630 660.923645,551.468384 
	C664.389221,548.944031 668.260376,547.437256 672.126038,550.852234 
	C672.154175,551.374817 672.307495,551.780334 672.168640,552.006470 
	C669.907349,555.687866 669.432373,559.474915 673.132019,562.265808 
	C676.749390,564.994629 680.969543,563.843384 683.523987,560.789673 
	C687.420898,556.130859 690.649353,550.856995 693.684631,545.570435 
	C694.501282,544.148010 694.078125,541.545593 693.399719,539.806396 
	C687.532898,524.767029 681.500488,509.791962 675.466125,494.818420 
	C673.346619,489.559326 670.685181,484.870605 664.116150,484.193726 
	C663.303223,484.109955 662.031494,482.397217 662.100708,481.529358 
	C662.171387,480.643890 663.584290,479.215912 664.494263,479.147247 
	C673.779785,478.446320 682.410156,478.984100 687.449036,490.690125 
	C691.789307,500.773254 695.693115,511.043915 699.825684,521.217163 
	C700.308289,522.405151 701.017944,523.501038 701.914673,525.190186 
	C702.588867,524.130920 703.096863,523.567627 703.345703,522.906799 
	C707.333374,512.316650 711.337280,501.732178 715.229004,491.106659 
	C717.150818,485.859558 716.615356,485.302277 711.240967,484.301605 
	C709.871216,484.046570 708.749329,482.460144 707.513550,481.485474 
	C708.902771,480.684113 710.268738,479.241516 711.685059,479.190338 
	C718.502380,478.943909 725.338745,478.931152 732.154724,479.191406 
	C733.472046,479.241699 734.728699,480.880219 736.013367,481.786072 
	C734.865479,482.661377 733.740540,484.254486 732.565796,484.292114 
	C726.292786,484.493042 723.031067,487.963287 720.894897,493.473419 
	C716.625061,504.487549 712.066345,515.389709 707.472595,526.692139 
z" data-index="9" style="opacity: 1;"></path>
<path fill="#E9EBF0" opacity="1.000000" stroke="none" d="
M595.133301,490.949585 
	C594.108643,486.165100 591.348694,485.464417 587.561035,486.900299 
	C580.296570,489.654388 577.746582,493.294098 577.749512,500.932953 
	C577.753113,510.253082 577.867188,519.574585 577.735474,528.892700 
	C577.667480,533.708862 579.429749,536.419434 584.524353,536.804993 
	C585.704712,536.894287 586.776611,538.415649 587.898438,539.278137 
	C586.558777,540.141479 585.238464,541.714722 583.876221,541.751892 
	C575.567017,541.978821 567.244812,541.976257 558.936462,541.728699 
	C557.617004,541.689392 556.346069,540.023743 555.052673,539.110046 
	C556.246155,538.301819 557.383240,536.910828 558.643127,536.788940 
	C563.432373,536.325745 565.199341,533.889832 565.132324,529.189209 
	C564.966309,517.541504 565.000854,505.888702 565.134583,494.239990 
	C565.187500,489.624115 563.632385,486.997681 558.646423,486.740295 
	C557.412354,486.676575 556.255310,485.121613 555.062866,484.252136 
	C556.198425,483.261902 557.182129,481.770416 558.497009,481.372070 
	C563.097656,479.978241 567.891052,479.204620 572.460144,477.727844 
	C576.407837,476.451965 577.749451,477.742828 577.585327,481.568878 
	C577.510437,483.315460 577.572632,485.067902 577.572632,487.113678 
	C582.708496,484.101074 587.068909,481.152100 591.766113,478.908081 
	C595.740845,477.009277 599.937561,477.227570 603.250793,480.736908 
	C606.531433,484.211761 607.173401,488.410095 605.742310,492.815247 
	C603.870972,498.575775 598.190979,500.295105 593.224915,496.830200 
	C593.875366,495.000427 594.521545,493.182739 595.133301,490.949585 
z" data-index="10"></path>
<path fill="#E9EBF0" opacity="1.000000" stroke="none" d="
M623.723816,473.607086 
	C625.256775,470.447815 626.327087,467.434296 627.981018,464.785095 
	C628.758484,463.539734 630.658875,462.995300 632.050415,462.133270 
	C632.713684,463.460205 633.929260,464.783722 633.937439,466.114716 
	C633.963074,470.252960 633.530701,474.394043 633.267944,478.664612 
	C638.172852,478.664612 642.785034,478.479523 647.365051,478.781006 
	C648.683472,478.867798 650.743164,480.155090 651.006592,481.244171 
	C651.576111,483.599487 650.463806,485.376984 647.474792,485.288269 
	C643.343323,485.165619 639.205444,485.257507 634.692627,485.257507 
	C634.534302,486.564270 634.254272,487.816437 634.250671,489.069366 
	C634.216309,501.057373 634.179993,513.045715 634.242371,525.033508 
	C634.297974,535.710999 638.612854,538.770752 648.832092,535.843262 
	C650.355530,535.406738 652.251404,536.270264 653.975037,536.532410 
	C652.921143,538.080261 652.218262,540.369751 650.758728,541.060730 
	C636.886475,547.628235 621.260193,542.913879 621.724304,523.628845 
	C622.031738,510.855560 621.782654,498.068909 621.782654,484.848328 
	C619.381104,484.848328 617.380493,485.106750 615.492981,484.756348 
	C614.262329,484.527832 613.195923,483.414703 612.055908,482.697876 
	C612.894165,481.469116 613.477295,479.866852 614.621155,479.085449 
	C617.443848,477.157104 620.523743,475.605316 623.723816,473.607086 
z" data-index="11" style="opacity: 1;"></path>
<path fill="#F3F4C4" opacity="1.000000" stroke="none" d="
M522.247925,369.713074 
	C528.033691,370.189636 533.563293,371.744415 539.012329,371.500458 
	C547.944397,371.100586 556.919495,368.124451 565.707947,368.720367 
	C592.083984,370.508942 606.186279,397.546692 593.503357,421.205353 
	C590.551270,426.712158 586.162598,431.436218 582.587646,436.625671 
	C579.606384,440.953186 576.848694,445.434692 574.017029,450.188599 
	C571.237244,450.662933 568.432373,450.796661 565.188904,450.723145 
	C568.719543,439.429840 577.627563,431.675385 583.810242,422.096008 
	C586.555115,417.843231 588.857361,413.031982 590.131470,408.153259 
	C594.177002,392.662048 578.330627,371.513062 556.071533,376.947327 
	C549.642090,378.517029 542.907043,379.504425 536.310425,379.513672 
	C530.799805,379.521423 525.286621,377.710388 519.422729,376.531403 
	C520.032471,374.233124 520.994019,372.108276 522.247925,369.713074 
z" data-index="12"></path>
<path fill="#D2B532" opacity="1.000000" stroke="none" d="
M587.445190,345.990387 
	C581.802185,345.231049 576.005737,344.020782 570.147095,343.458649 
	C566.464172,343.105286 562.687866,343.723969 558.557739,343.928650 
	C592.662659,322.787231 627.131470,301.569427 662.914246,282.567932 
	C633.725647,304.648102 601.355591,321.715027 569.620605,341.464569 
	C576.196960,343.085480 581.731201,344.449524 587.445190,345.990387 
z" data-index="13"></path>
<path fill="#D2B532" opacity="1.000000" stroke="none" d="
M617.587646,373.324219 
	C616.086243,371.103546 614.544495,368.458038 612.938232,365.534119 
	C614.535706,364.749603 616.371948,364.543091 617.834045,363.693085 
	C647.302002,346.561859 676.697388,329.305359 706.198425,312.231476 
	C709.861267,310.111603 714.039368,308.882111 718.520203,308.139404 
	C700.579407,318.965149 682.666748,329.837769 664.689148,340.601898 
	C649.984253,349.406464 635.214478,358.102997 620.441162,366.792664 
	C618.001770,368.227570 615.710022,369.530731 617.587646,373.324219 
z" data-index="14"></path>
<path fill="#D2B532" opacity="1.000000" stroke="none" d="
M618.235962,420.224854 
	C618.921753,417.064636 619.901855,413.844269 620.781555,410.596619 
	C621.208374,409.020874 621.447144,407.394165 621.996460,405.555176 
	C622.106995,407.556854 621.992065,409.793884 621.824707,413.051361 
	C623.990417,411.813568 625.504395,411.049652 626.914490,410.127075 
	C645.932007,397.683990 664.892822,385.153320 683.984253,372.824860 
	C687.093750,370.816895 690.765137,369.678986 694.399963,368.696533 
	C683.723999,376.215118 673.047974,383.733673 661.837158,391.607056 
	C657.473022,394.616089 653.643738,397.270325 649.814514,399.924561 
	C639.372681,406.667542 628.930786,413.410492 618.235962,420.224854 
z" data-index="15"></path>
<path fill="#D2B532" opacity="1.000000" stroke="none" d="
M605.206726,356.532043 
	C602.724670,354.991272 600.131104,353.113647 597.332947,351.036865 
	C601.189514,348.637634 605.312195,346.543060 609.301453,344.219269 
	C626.974426,333.924316 644.601135,323.550018 662.269531,313.247131 
	C664.083496,312.189453 666.063293,311.416138 667.966125,310.510834 
	C668.277710,311.038269 668.589294,311.565704 668.900879,312.093140 
	C647.000122,325.622681 625.099365,339.152222 602.631714,353.031982 
	C603.420166,354.044373 604.257751,355.119781 605.206726,356.532043 
z" data-index="16"></path>
<path fill="#D2B532" opacity="1.000000" stroke="none" d="
M622.896484,402.120148 
	C623.553040,392.908783 621.621216,383.927917 618.099365,374.895203 
	C619.666626,378.485657 621.276184,382.392639 622.953369,386.463806 
	C642.658203,375.038971 662.223816,363.694855 681.789429,352.350739 
	C682.170837,352.948090 682.552185,353.545441 682.933533,354.142792 
	C680.361206,355.909241 677.854675,357.781769 675.205627,359.424500 
	C660.666870,368.440308 646.385742,377.933685 631.402527,386.143250 
	C624.392273,389.984283 622.133179,394.676178 622.896484,402.120148 
z" data-index="17"></path>
<path fill="#D2B532" opacity="1.000000" stroke="none" d="
M652.090576,305.777039 
	C642.877869,310.663971 633.975037,315.349304 625.072205,320.034668 
	C641.703125,306.187073 660.343262,295.815613 679.472168,286.278137 
	C679.774170,286.749512 680.076172,287.220856 680.378235,287.692200 
	C675.866943,290.677673 671.392578,293.720886 666.834290,296.632751 
	C662.065002,299.679413 657.215088,302.599854 652.090576,305.777039 
z" data-index="18"></path>
<path fill="#D2B532" opacity="1.000000" stroke="none" d="
M658.362549,332.141541 
	C650.289978,336.757263 642.512573,341.177765 634.735168,345.598297 
	C634.419312,345.061859 634.103455,344.525452 633.787659,343.989014 
	C644.833801,337.160461 655.879944,330.331909 666.926086,323.503357 
	C667.207947,323.906219 667.489746,324.309082 667.771606,324.711975 
	C664.733704,327.123444 661.695740,329.534912 658.362549,332.141541 
z" data-index="19"></path>
<path fill="#D2B532" opacity="1.000000" stroke="none" d="
M701.720764,300.443542 
	C695.831360,303.293915 690.254578,305.952271 684.677795,308.610657 
	C684.400391,308.064117 684.123047,307.517609 683.845642,306.971100 
	C694.665222,301.020630 705.484802,295.070160 716.304321,289.119659 
	C716.618774,289.646759 716.933228,290.173828 717.247681,290.700897 
	C712.176270,293.884430 707.104858,297.067963 701.720764,300.443542 
z" data-index="20"></path>
<path fill="#D2B532" opacity="1.000000" stroke="none" d="
M669.256958,372.956848 
	C670.470032,372.492126 671.395752,372.169220 672.321472,371.846313 
	C664.898743,379.177124 656.376526,384.626068 646.867554,388.463806 
	C646.571594,387.984222 646.275696,387.504639 645.979736,387.025024 
	C653.643005,382.382935 661.306274,377.740814 669.256958,372.956848 
z" data-index="21"></path>
<path fill="#D2B532" opacity="1.000000" stroke="none" d="
M687.752319,339.640015 
	C683.577637,341.941315 679.674072,344.022522 675.770569,346.103729 
	C675.537903,345.691895 675.305237,345.280029 675.072571,344.868164 
	C680.606201,341.486053 686.139832,338.103943 691.673462,334.721832 
	C691.925293,335.048218 692.177124,335.374573 692.428955,335.700958 
	C690.960510,336.940613 689.492004,338.180237 687.752319,339.640015 
z" data-index="22"></path>
<path fill="#032489" opacity="1.000000" stroke="none" d="
M537.758911,531.245850 
	C537.336975,529.687378 536.721313,527.612366 536.697205,525.530579 
	C536.521545,510.389374 536.465027,495.246796 536.317749,479.648560 
	C536.843445,480.625000 537.918762,482.055359 537.924927,483.490356 
	C537.992310,499.235229 537.893127,514.980774 537.758911,531.245850 
z" data-index="23"></path>
<path fill="#032489" opacity="1.000000" stroke="none" d="
M650.160889,399.992493 
	C653.643738,397.270325 657.473022,394.616089 661.653564,391.898712 
	C660.465637,395.983978 654.157532,400.496490 650.160889,399.992493 
z" data-index="24"></path>
<path fill="#D2B532" opacity="1.000000" stroke="none" d="
M611.913025,363.797058 
	C611.225281,363.335724 610.582581,362.650513 609.930969,361.763275 
	C610.600769,362.231873 611.279358,362.902527 611.913025,363.797058 
z" data-index="25"></path>
<path fill="#D2B532" opacity="1.000000" stroke="none" d="
M592.107178,347.893860 
	C591.251648,347.794922 590.238770,347.491028 589.093628,346.954712 
	C589.957520,347.044495 590.953674,347.366699 592.107178,347.893860 
z" data-index="26"></path>
<path fill="#D2B532" opacity="1.000000" stroke="none" d="
M595.898254,349.927490 
	C595.404236,349.891785 594.849548,349.677673 594.232056,349.296814 
	C594.725281,349.336365 595.281494,349.542725 595.898254,349.927490 
z" data-index="27"></path>
<path fill="#D2B532" opacity="1.000000" stroke="none" d="
M608.524902,434.041748 
	C608.683838,433.485168 609.057312,432.931641 609.617065,432.298950 
	C609.448730,432.828125 609.094116,433.436462 608.524902,434.041748 
z" data-index="28"></path>
<path fill="#D2B532" opacity="1.000000" stroke="none" d="
M613.085571,428.382019 
	C613.077881,427.977478 613.232971,427.615692 613.535522,427.214996 
	C613.538147,427.592316 613.393250,428.008545 613.085571,428.382019 
z" data-index="29"></path>
<path fill="#D2B532" opacity="1.000000" stroke="none" d="
M610.339417,431.795715 
	C610.172729,431.435211 610.327209,431.186951 610.773804,430.981964 
	C610.788574,431.237030 610.653503,431.531281 610.339417,431.795715 
z" data-index="30"></path>
<path fill="#D2B532" opacity="1.000000" stroke="none" d="
M606.590088,357.897003 
	C606.462402,357.942657 606.069092,357.745056 606.080322,357.668457 
	C606.373840,357.438843 606.582581,357.525330 606.590088,357.897003 
z" data-index="31"></path>
<path fill="#D2B532" opacity="1.000000" stroke="none" d="
M615.008545,425.377930 
	C615.126099,425.334686 615.015564,425.372345 614.997559,425.370728 
	C614.979553,425.369110 615.037781,425.596161 615.037781,425.596161 
	C615.037781,425.596161 614.890991,425.421143 615.008545,425.377930 
z" data-index="32"></path>
<path fill="#D2B532" opacity="1.000000" stroke="none" d="
M617.173950,422.153870 
	C617.183899,422.238129 617.094788,422.272247 617.076050,422.308594 
	C617.057312,422.344940 617.163940,422.069641 617.173950,422.153870 
z" data-index="33"></path>
<path fill="#D2B532" opacity="1.000000" stroke="none" d="
M616.103516,423.500977 
	C615.964172,423.497223 616.046143,423.126526 616.133423,423.079102 
	C616.220703,423.031708 616.380127,423.261444 616.380127,423.261444 
	C616.380127,423.261444 616.242859,423.504700 616.103516,423.500977 
z" data-index="34"></path>
<path fill="#D2B532" opacity="1.000000" stroke="none" d="
M612.281006,430.153931 
	C612.348328,430.193665 612.194031,430.224579 612.203247,430.263977 
	C612.212463,430.303345 612.213684,430.114227 612.281006,430.153931 
z" data-index="35"></path>
<path fill="#D2B532" opacity="1.000000" stroke="none" d="
M609.058960,359.597351 
	C608.994995,359.578247 609.230957,359.697998 609.264282,359.754089 
	C609.297668,359.810211 609.122925,359.616455 609.058960,359.597351 
z" data-index="36"></path>
<path fill="#032489" opacity="1.000000" stroke="none" d="
M405.292664,534.990295 
	C378.123352,524.006897 369.234741,493.072693 385.841553,470.265503 
	C401.629242,448.583344 428.798431,448.514435 445.940582,462.221619 
	C464.713867,477.233063 467.382385,504.948730 451.700409,522.678467 
	C439.099396,536.924927 423.688690,540.893616 405.292664,534.990295 
z" data-index="37"></path>
</svg>